# xmcd CD database file
# Copyright (C) 1997 Ti Kan
# 
# Track frame offsets:
#     182
#     20750
#     38117
#     52255
#     63507
#     92115
#     112622
#     126815
#     140577
#     155215
# 
# Disc length: 2334 seconds
# 
# Revision: 1
# Processed by: cddbd v1.4b41PL1 Copyright (c) Steve Scherf et al.
# Submitted via: DiscPlay 4.0.4
# 
DISCID=8e091c0a
DTITLE=Kid Abelha e Oos Ab bodas Selvagens - Seu Espi o
DYEAR=1900
DGENRE=
TTITLE0=Seu Espi o
TTITLE1=Nada Tanto Assim
TTITLE2=Alice
TTITLE3=Hoje eu N o Vou
TTITLE4=Fixa  o
TTITLE5=Como  eu Quero
TTITLE6=Ele Quer Me Conquistar
TTITLE7=Porque N o Eu
TTITLE8=Homem Com Uma Miss o
TTITLE9=Pintura  ntima
EXTD=
EXTT0=
EXTT1=
EXTT2=
EXTT3=
EXTT4=
EXTT5=
EXTT6=
EXTT7=
EXTT8=
EXTT9=
PLAYORDER=
